<?xml version="1.0" encoding="UTF-8" standalone="no"?>
<!-- Generator: Adobe Illustrator 16.0.0, SVG Export Plug-In . SVG Version: 6.00 Build 0)  -->

<svg
   xmlns:dc="http://purl.org/dc/elements/1.1/"
   xmlns:cc="http://creativecommons.org/ns#"
   xmlns:rdf="http://www.w3.org/1999/02/22-rdf-syntax-ns#"
   xmlns:svg="http://www.w3.org/2000/svg"
   xmlns="http://www.w3.org/2000/svg"
   xmlns:sodipodi="http://sodipodi.sourceforge.net/DTD/sodipodi-0.dtd"
   xmlns:inkscape="http://www.inkscape.org/namespaces/inkscape"
   version="1.1"
   id="Capa_1"
   x="0px"
   y="0px"
   width="400"
   height="400"
   viewBox="0 0 399.99999 399.99997"
   xml:space="preserve"
   inkscape:version="0.91 r13725"
   sodipodi:docname="62295-knocking-door-office-worker.svg"><metadata
     id="metadata4296"><rdf:RDF><cc:Work
         rdf:about=""><dc:format>image/svg+xml</dc:format><dc:type
           rdf:resource="http://purl.org/dc/dcmitype/StillImage" /><dc:title></dc:title></cc:Work></rdf:RDF></metadata><defs
     id="defs4294" /><sodipodi:namedview
     pagecolor="#ffffff"
     bordercolor="#666666"
     borderopacity="1"
     objecttolerance="10"
     gridtolerance="10"
     guidetolerance="10"
     inkscape:pageopacity="0"
     inkscape:pageshadow="2"
     inkscape:window-width="1600"
     inkscape:window-height="836"
     id="namedview4292"
     showgrid="false"
     fit-margin-top="0"
     fit-margin-left="0"
     fit-margin-right="0"
     fit-margin-bottom="0"
     showguides="true"
     inkscape:guide-bbox="true"
     inkscape:zoom="1"
     inkscape:cx="41.587956"
     inkscape:cy="156.45404"
     inkscape:window-x="0"
     inkscape:window-y="27"
     inkscape:window-maximized="1"
     inkscape:current-layer="Capa_1"><sodipodi:guide
       position="200,460.99997"
       orientation="1,0"
       id="guide4315" /></sodipodi:namedview><g
     id="g4311"
     transform="matrix(1.9710985,0,0,1.9710985,52,-391.43938)"><ellipse
       cx="74.819534"
       cy="217.86899"
       rx="16.834"
       ry="16.613001"
       id="ellipse4254" /><path
       d="m 108.44053,314.37899 0,-5.752 c 1.107,-0.789 1.967,-1.963 2.336,-3.393 0.542,-2.1 12.979,-51.639 -14.864003,-67.515 -0.796,-0.454 -2.038,-0.791 -3.255,-0.791 -9.182,0 -35.982,0.028 -35.982,0.028 0,0 0,-0.014 0,-0.013 -2.115,-0.016 -4.172,1.081 -5.281,3.053 -5.868,10.428 -12.873,16.617 -20.816,18.4 -11.104,2.49 -20.9799997,-4.388 -21.0549997,-4.442 -2.686,-1.941 -6.438,-1.342 -8.382,1.343 -1.94499996,2.686 -1.34399996,6.438 1.342,8.382 0.481,0.348 10.2129997,7.268 23.0969997,7.268 2.391,0 4.891,-0.241 7.458,-0.803 8.133,-1.783 15.338,-6.404 21.617,-13.781 l 0,134.633 c 0,4.971 4.011,9.004 8.983,9.004 4.974,0 8.985,-4.033 8.985,-9.004 l 0,-68 4.308,0 0,68 c 0,4.971 4.015,9.004 8.986,9.004 4.973,0 8.984,-4.033 8.984,-9.004 l 0,-138.652 c 10.586003,12.614 6.904003,39.427 4.22,49.888 -0.737,2.854 0.704,5.755 3.288003,6.948 l 0,5.198 c -3.330003,0 -6.030003,2.701 -6.030003,6.031 l 0,27.941 c 0,3.33 2.7,6.029 6.030003,6.029 l 6.896,0 c 3.33,0 6.029,-2.699 6.029,-6.029 l 0,-27.941 c 0,-3.33 -2.699,-6.031 -6.029,-6.031 l -0.865,0 z m -37.541003,-69.342 c 0,-1.471 1.191,-2.663 2.662,-2.663 l 2.552,0 c 1.471,0 2.663,1.192 2.663,2.663 l 0,2.675 c 0,1.471 -1.192,2.663 -2.663,2.663 l -2.552,0 c -1.471,0 -2.662,-1.192 -2.662,-2.663 l 0,-2.675 z m 5.039,33.561 c -0.644,0.56 -1.601,0.56 -2.242,-10e-4 l -3.105,-2.703 c -1.101,-0.959 -1.615,-2.426 -1.354,-3.861 l 3.326,-18.285 c 0.146,-0.813 0.854,-1.402 1.68,-1.402 l 1.15,0 c 0.826,0 1.533,0.59 1.681,1.402 l 3.325,18.285 c 0.262,1.437 -0.254,2.903 -1.354,3.862 l -3.107,2.703 z"
       id="path4256"
       inkscape:connector-curvature="0" /></g><g
     id="g4262"
     transform="translate(-77.045473,201.23599)" /><g
     id="g4264"
     transform="translate(-77.045473,201.23599)" /><g
     id="g4266"
     transform="translate(-77.045473,201.23599)" /><g
     id="g4268"
     transform="translate(-77.045473,201.23599)" /><g
     id="g4270"
     transform="translate(-77.045473,201.23599)" /><g
     id="g4272"
     transform="translate(-77.045473,201.23599)" /><g
     id="g4274"
     transform="translate(-77.045473,201.23599)" /><g
     id="g4276"
     transform="translate(-77.045473,201.23599)" /><g
     id="g4278"
     transform="translate(-77.045473,201.23599)" /><g
     id="g4280"
     transform="translate(-77.045473,201.23599)" /><g
     id="g4282"
     transform="translate(-77.045473,201.23599)" /><g
     id="g4284"
     transform="translate(-77.045473,201.23599)" /><g
     id="g4286"
     transform="translate(-77.045473,201.23599)" /><g
     id="g4288"
     transform="translate(-77.045473,201.23599)" /><g
     id="g4290"
     transform="translate(-77.045473,201.23599)" /></svg>